<svg width="105" height="105" viewBox="0 0 105 105" fill="none" xmlns="http://www.w3.org/2000/svg">
<path d="M27.1511 5.2942C31.6181 1.91122 37.0712 0.0865932 42.6746 0.100049C44.2466 0.100049 45.4977 0.918799 46.2247 1.4821C47.0369 2.124 47.7967 2.94275 48.4779 3.7615C48.9609 4.34814 49.2249 5.0845 49.2246 5.8444V29.575H42.1179C41.3453 27.3899 39.8251 25.5483 37.826 24.3756C35.8269 23.2029 33.4776 22.7746 31.1933 23.1665C28.909 23.5585 26.8368 24.7453 25.343 26.5173C23.8491 28.2893 23.0298 30.5324 23.0298 32.85C23.0298 35.1677 23.8491 37.4108 25.343 39.1828C26.8368 40.9548 28.909 42.1416 31.1933 42.5336C33.4776 42.9255 35.8269 42.4972 37.826 41.3245C39.8251 40.1518 41.3453 38.3102 42.1179 36.125H49.2246V97.7933C49.2249 98.2782 49.1176 98.7571 48.9103 99.1955C48.703 99.6339 48.401 100.021 48.026 100.328C44.9999 102.804 40.952 104.9 36.1246 104.9C28.3563 104.9 22.5727 100.983 18.8326 96.2999C16.1455 92.9631 14.3051 89.026 13.4682 84.8243C10.9234 84.1458 8.56385 82.9034 6.56446 81.189C2.94886 78.0909 0.0996094 73.067 0.0996094 65.6C0.0996094 61.9517 0.341959 58.657 0.885609 55.775H21.3871C25.5529 55.775 28.9851 58.8863 29.5091 62.908C27.3309 63.6963 25.5012 65.2289 24.3432 67.2351C23.1853 69.2414 22.7734 71.5923 23.1804 73.8728C23.5873 76.1532 24.787 78.2165 26.5675 79.6984C28.348 81.1802 30.5948 81.9853 32.9113 81.9714C35.2277 81.9576 37.4647 81.1257 39.2274 79.6227C40.9901 78.1197 42.165 76.0422 42.5447 73.757C42.9244 71.4719 42.4844 69.1261 41.3025 67.1338C40.1206 65.1415 38.2728 63.6309 36.0853 62.8687C35.8092 59.1595 34.1408 55.6918 31.4148 53.1613C28.6887 50.6308 25.1066 49.2247 21.3871 49.225H2.98816C3.99031 47.2731 5.33306 45.6225 7.08191 44.4501C7.52428 44.1573 7.98852 43.8989 8.47051 43.6772C6.61031 38.2276 7.09501 31.8479 8.88971 26.8371C10.036 23.6145 11.8569 20.5688 14.359 18.5383C16.0096 17.1955 17.9746 16.3113 20.123 16.141C21.0662 11.6673 23.7189 7.9666 27.1577 5.2942H27.1511ZM55.7746 81.975H60.6871C64.5957 81.975 68.3443 80.4223 71.1081 77.6585C73.8719 74.8947 75.4246 71.1462 75.4246 67.2375V55.2183C77.6097 54.4457 79.4514 52.9256 80.6241 50.9265C81.7968 48.9274 82.225 46.5781 81.8331 44.2938C81.4412 42.0095 80.2543 39.9373 78.4824 38.4434C76.7104 36.9495 74.4673 36.1302 72.1496 36.1302C69.8319 36.1302 67.5889 36.9495 65.8169 38.4434C64.0449 39.9373 62.858 42.0095 62.4661 44.2938C62.0742 46.5781 62.5024 48.9274 63.6751 50.9265C64.8478 52.9256 66.6895 54.4457 68.8746 55.2183V67.2375C68.8746 71.757 65.2066 75.425 60.6871 75.425H55.7746V5.8444C55.7743 5.0845 56.0383 4.34814 56.5213 3.7615C57.196 2.94275 57.9623 2.124 58.7745 1.4821C59.495 0.918799 60.7461 0.100049 62.3246 0.100049C67.928 0.0865932 73.3812 1.91122 77.8481 5.2942C81.2869 7.9666 83.9396 11.6673 84.8763 16.141C87.0247 16.3047 88.9897 17.1955 90.6403 18.5383C93.1424 20.5688 94.9633 23.6145 96.1095 26.8371C97.9042 31.8479 98.3889 38.2341 96.5287 43.6707C97.0003 43.8934 97.4654 44.1553 97.9173 44.4566C99.7186 45.6553 101.088 47.3714 102.096 49.3953C104.081 53.3581 104.9 58.8863 104.9 65.6C104.9 73.0736 102.05 78.0909 98.4348 81.189C96.4354 82.9034 94.0759 84.1458 91.5311 84.8243C90.8761 88.4792 89.0421 92.7105 86.1666 96.2999C82.4331 100.983 76.6429 104.9 68.8746 104.9C64.0538 104.9 59.9994 102.804 56.9798 100.328C56.6036 100.021 56.3003 99.6348 56.0919 99.1964C55.8835 98.758 55.7751 98.2787 55.7746 97.7933V81.975ZM32.8496 29.575C31.981 29.575 31.148 29.9201 30.5338 30.5343C29.9197 31.1485 29.5746 31.9815 29.5746 32.85C29.5746 33.7186 29.9197 34.5516 30.5338 35.1658C31.148 35.78 31.981 36.125 32.8496 36.125C33.7182 36.125 34.5512 35.78 35.1654 35.1658C35.7796 34.5516 36.1246 33.7186 36.1246 32.85C36.1246 31.9815 35.7796 31.1485 35.1654 30.5343C34.5512 29.9201 33.7182 29.575 32.8496 29.575ZM32.8496 68.875C31.981 68.875 31.148 69.2201 30.5338 69.8343C29.9197 70.4484 29.5746 71.2815 29.5746 72.15C29.5746 73.0186 29.9197 73.8516 30.5338 74.4658C31.148 75.08 31.981 75.425 32.8496 75.425C33.7182 75.425 34.5512 75.08 35.1654 74.4658C35.7796 73.8516 36.1246 73.0186 36.1246 72.15C36.1246 71.2815 35.7796 70.4484 35.1654 69.8343C34.5512 69.2201 33.7182 68.875 32.8496 68.875ZM72.1496 49.225C73.0182 49.225 73.8512 48.88 74.4654 48.2658C75.0796 47.6516 75.4246 46.8186 75.4246 45.9501C75.4246 45.0815 75.0796 44.2485 74.4654 43.6343C73.8512 43.0201 73.0182 42.675 72.1496 42.675C71.281 42.675 70.448 43.0201 69.8338 43.6343C69.2197 44.2485 68.8746 45.0815 68.8746 45.9501C68.8746 46.8186 69.2197 47.6516 69.8338 48.2658C70.448 48.88 71.281 49.225 72.1496 49.225Z" fill="white"/>
</svg>
