<svg width="131" height="99" viewBox="0 0 131 99" fill="none" xmlns="http://www.w3.org/2000/svg">
<path d="M73.6875 24.9375C73.6875 31.4519 71.0997 37.6994 66.4933 42.3058C61.887 46.9122 55.6394 49.5 49.125 49.5C42.6106 49.5 36.3631 46.9122 31.7567 42.3058C27.1503 37.6994 24.5625 31.4519 24.5625 24.9375C24.5625 18.4231 27.1503 12.1756 31.7567 7.56919C36.3631 2.96283 42.6106 0.375 49.125 0.375C55.6394 0.375 61.887 2.96283 66.4933 7.56919C71.0997 12.1756 73.6875 18.4231 73.6875 24.9375ZM0 90.4375C0 98.625 8.1875 98.625 8.1875 98.625H90.0625C90.0625 98.625 98.25 98.625 98.25 90.4375C98.25 82.25 90.0625 57.6875 49.125 57.6875C8.1875 57.6875 0 82.25 0 90.4375ZM110.531 24.2006C121.887 12.5334 150.282 32.9613 110.531 59.2186C70.7891 32.9613 99.1752 12.5334 110.531 24.2088V24.2006Z" fill="white"/>
</svg>
