<svg width="121" height="89" viewBox="0 0 121 89" fill="none" xmlns="http://www.w3.org/2000/svg">
<path d="M76.8747 55.4167C62.3009 55.4167 33.208 62.6763 33.208 77.25V88.1667H120.541V77.25C120.541 62.6763 91.4484 55.4167 76.8747 55.4167ZM76.8747 44.5C82.6652 44.5 88.2186 42.1998 92.3132 38.1052C96.4077 34.0107 98.708 28.4573 98.708 22.6667C98.708 16.8761 96.4077 11.3228 92.3132 7.22821C88.2186 3.13366 82.6652 0.833374 76.8747 0.833374C71.0841 0.833374 65.5307 3.13366 61.4362 7.22821C57.3416 11.3228 55.0413 16.8761 55.0413 22.6667C55.0413 28.4573 57.3416 34.0107 61.4362 38.1052C65.5307 42.1998 71.0841 44.5 76.8747 44.5ZM22.2913 51.4867L35.6643 59.6196L32.1163 44.2817L44.1247 34.02L28.3501 32.6555L22.2913 18.2455L16.1234 32.6555L0.458008 34.02L12.3572 44.2817L8.64551 59.6196L22.2913 51.4867Z" fill="white"/>
</svg>
