<svg width="89" height="111" viewBox="0 0 89 111" fill="none" xmlns="http://www.w3.org/2000/svg">
<path d="M49.958 99.1666C51.3492 99.1682 52.6874 99.7009 53.699 100.656C54.7106 101.611 55.3194 102.916 55.4009 104.305C55.4824 105.694 55.0306 107.061 54.1376 108.128C53.2447 109.195 51.9781 109.881 50.5966 110.045L49.958 110.083H39.0413C37.6501 110.082 36.312 109.549 35.3004 108.594C34.2887 107.639 33.68 106.334 33.5984 104.945C33.5169 103.556 33.9688 102.188 34.8617 101.122C35.7546 100.055 37.0212 99.3691 38.4027 99.2048L39.0413 99.1666H49.958ZM44.4997 0.916626C68.5709 0.916626 88.1663 20.2555 88.1663 44.2176C88.1663 60.6253 79.8588 72.5791 72.9922 79.664L71.442 81.2087L69.9683 82.5842L68.5928 83.785L66.7915 85.2588L65.0012 86.5906C63.6857 87.5185 62.8015 88.8777 61.9991 90.2914L60.8801 92.2782C59.5811 94.5161 58.0582 96.4375 54.8323 96.4375H34.1671C30.9466 96.4375 29.4183 94.5216 28.1192 92.2782L27.4751 91.1429C26.5363 89.4399 25.5756 87.7041 23.9982 86.5906L22.7318 85.6572L21.6456 84.8112L20.4066 83.785L19.0311 82.5842L17.5573 81.2087L16.0017 79.664C9.14059 72.5791 0.833008 60.6253 0.833008 44.2176C0.833008 20.2555 20.4284 0.916626 44.4997 0.916626ZM53.8171 24.3493C52.8772 23.4095 51.6267 22.8449 50.3001 22.7615C48.9736 22.6781 47.6623 23.0815 46.6121 23.8962L46.099 24.3493L35.2205 35.2277C34.2715 36.1768 33.7013 37.4395 33.6169 38.7791C33.5325 40.1186 33.9396 41.4429 34.762 42.5037L35.2205 43.0222L42.2399 50.0416L35.1823 57.0993C34.2034 58.0815 33.635 59.3996 33.5927 60.7857C33.5504 62.1719 34.0372 63.5221 34.9544 64.5623C35.8716 65.6025 37.1503 66.2545 38.5308 66.386C39.9114 66.5176 41.2902 66.1187 42.3873 65.2704L42.9004 64.8173L53.7788 53.9389C54.7279 52.9898 55.2981 51.727 55.3825 50.3875C55.4669 49.048 55.0597 47.7236 54.2373 46.6629L53.7788 46.1444L46.7594 39.125L53.8171 32.0673C54.8403 31.0437 55.4152 29.6556 55.4152 28.2083C55.4152 26.7609 54.8403 25.3728 53.8171 24.3493Z" fill="white"/>
</svg>
