<svg width="81" height="81" viewBox="0 0 81 81" fill="none" xmlns="http://www.w3.org/2000/svg">
<path d="M16.1931 40.0048L6.66172 35.9053C5.29521 35.3587 4.49307 34.368 4.2553 32.9332C4.01479 31.4983 4.40698 30.2685 5.43186 29.2436L18.3453 16.3301C19.3019 15.3736 20.4293 14.6903 21.7274 14.2804C23.0256 13.8704 24.358 13.8021 25.7245 14.0754L31.0538 15.2027C27.4326 19.5072 24.5465 23.4196 22.3957 26.9397C20.2421 30.4571 18.1745 34.8121 16.1931 40.0048ZM76.456 0.0345368C77.0026 0.0345368 77.5492 0.171187 78.0958 0.444488C78.6424 0.717789 79.1207 1.05942 79.5306 1.46937C79.9406 1.87932 80.2822 2.3576 80.5555 2.9042C80.8288 3.4508 80.9655 3.9974 80.9655 4.54401C81.2388 10.8983 79.89 17.4916 76.9192 24.3242C73.9457 31.1567 69.7601 37.2718 64.3624 42.6695C60.6729 46.3591 57.1199 49.3135 53.7037 51.5327C50.2874 53.7546 46.2562 55.8563 41.6101 57.8377C40.7219 58.1794 39.8172 58.3502 38.8962 58.3502C37.9725 58.3502 37.169 58.0085 36.4857 57.3253L23.6747 44.5143C22.9915 43.831 22.6498 43.0275 22.6498 42.1038C22.6498 41.1828 22.8206 40.2781 23.1623 39.3899C25.1437 34.8121 27.2454 30.7973 29.4673 27.3455C31.6865 23.8965 34.6409 20.3271 38.3305 16.6376C43.7282 11.2399 49.8433 7.05428 56.6758 4.08076C63.5084 1.10998 70.1018 -0.238764 76.456 0.0345368ZM50.4241 30.5759C51.9955 32.1474 53.9264 32.9332 56.2167 32.9332C58.5042 32.9332 60.4337 32.1474 62.0052 30.5759C63.5767 29.0045 64.3624 27.0736 64.3624 24.7833C64.3624 22.4958 63.5767 20.5663 62.0052 18.9948C60.4337 17.4233 58.5042 16.6376 56.2167 16.6376C53.9264 16.6376 51.9955 17.4233 50.4241 18.9948C48.8526 20.5663 48.0668 22.4958 48.0668 24.7833C48.0668 27.0736 48.8526 29.0045 50.4241 30.5759ZM40.9952 64.8069C46.1879 62.8255 50.5607 60.7593 54.1136 58.6084C57.6665 56.4548 61.5952 53.5674 65.8997 49.9462L66.9246 55.2755C67.1979 56.642 67.1296 57.9921 66.7197 59.3259C66.3097 60.6568 65.6264 61.8006 64.6699 62.7571L51.7564 75.6706C50.7315 76.6955 49.5017 77.0713 48.0668 76.798C46.632 76.5247 45.6413 75.7048 45.0947 74.3383L40.9952 64.8069ZM7.6866 55.9929C10.078 53.6016 12.9818 52.3881 16.3981 52.3526C19.8143 52.3198 22.7182 53.4991 25.1095 55.8905C27.5009 58.2818 28.6966 61.1857 28.6966 64.6019C28.6966 68.0182 27.5009 70.922 25.1095 73.3134C23.4014 75.0215 20.5495 76.4905 16.5539 77.7204C12.5555 78.9502 7.0375 80.0434 0 81C0.956554 73.9625 2.04976 68.4623 3.27961 64.4994C4.50947 60.5366 5.97846 57.7011 7.6866 55.9929Z" fill="#B92C00"/>
</svg>
