<svg width="116" height="109" viewBox="0 0 116 109" fill="none" xmlns="http://www.w3.org/2000/svg">
<path d="M35.2127 42.95C40.8585 42.95 46.273 40.7072 50.2652 36.715C54.2574 32.7229 56.5002 27.3083 56.5002 21.6625C56.5002 16.0167 54.2574 10.6021 50.2652 6.60996C46.273 2.61778 40.8585 0.375 35.2127 0.375C29.5669 0.375 24.1523 2.61778 20.1602 6.60996C16.168 10.6021 13.9252 16.0167 13.9252 21.6625C13.9252 27.3083 16.168 32.7229 20.1602 36.715C24.1523 40.7072 29.5669 42.95 35.2127 42.95ZM102.35 26.575C102.35 30.9179 100.625 35.083 97.5541 38.1539C94.4832 41.2248 90.3181 42.95 85.9752 42.95C81.6323 42.95 77.4672 41.2248 74.3963 38.1539C71.3254 35.083 69.6002 30.9179 69.6002 26.575C69.6002 22.2321 71.3254 18.067 74.3963 14.9961C77.4672 11.9252 81.6323 10.2 85.9752 10.2C90.3181 10.2 94.4832 11.9252 97.5541 14.9961C100.625 18.067 102.35 22.2321 102.35 26.575ZM49.9502 78.975C49.9502 67.8138 55.0264 57.8316 63.0043 51.2226C61.0243 50.0894 58.7816 49.4954 56.5002 49.5H13.9252C10.4509 49.5 7.11882 50.8802 4.6621 53.3369C2.20537 55.7936 0.825195 59.1257 0.825195 62.6C0.825195 62.6 0.825195 88.8 35.2127 88.8C41.4548 88.8 46.5638 87.9354 50.7427 86.5271C50.2143 84.0445 49.9487 81.5132 49.9502 78.975ZM115.45 78.975C115.45 86.7923 112.345 94.2893 106.817 99.817C101.29 105.345 93.7925 108.45 85.9752 108.45C78.1579 108.45 70.6609 105.345 65.1332 99.817C59.6056 94.2893 56.5002 86.7923 56.5002 78.975C56.5002 71.1577 59.6056 63.6607 65.1332 58.133C70.6609 52.6054 78.1579 49.5 85.9752 49.5C93.7925 49.5 101.29 52.6054 106.817 58.133C112.345 63.6607 115.45 71.1577 115.45 78.975ZM89.2502 65.875C89.2502 65.0064 88.9052 64.1734 88.291 63.5592C87.6768 62.945 86.8438 62.6 85.9752 62.6C85.1066 62.6 84.2736 62.945 83.6594 63.5592C83.0452 64.1734 82.7002 65.0064 82.7002 65.875V75.7H72.8752C72.0066 75.7 71.1736 76.045 70.5594 76.6592C69.9452 77.2734 69.6002 78.1064 69.6002 78.975C69.6002 79.8436 69.9452 80.6766 70.5594 81.2908C71.1736 81.905 72.0066 82.25 72.8752 82.25H82.7002V92.075C82.7002 92.9436 83.0452 93.7766 83.6594 94.3908C84.2736 95.005 85.1066 95.35 85.9752 95.35C86.8438 95.35 87.6768 95.005 88.291 94.3908C88.9052 93.7766 89.2502 92.9436 89.2502 92.075V82.25H99.0752C99.9438 82.25 100.777 81.905 101.391 81.2908C102.005 80.6766 102.35 79.8436 102.35 78.975C102.35 78.1064 102.005 77.2734 101.391 76.6592C100.777 76.045 99.9438 75.7 99.0752 75.7H89.2502V65.875Z" fill="white"/>
</svg>
