<svg width="25" height="21" viewBox="0 0 25 21" fill="none" xmlns="http://www.w3.org/2000/svg">
<path d="M7.86364 20.9997C9.78311 21.0122 11.6859 20.6306 13.4616 19.877C15.2373 19.1234 16.8506 18.0129 18.2079 16.6098C19.5652 15.2067 20.6395 13.539 21.3685 11.7035C22.0975 9.86787 22.4666 7.90092 22.4545 5.91671V5.22364C23.4495 4.47007 24.3107 3.54404 25 2.48662C24.0631 2.91021 23.0717 3.19114 22.0568 3.32065C23.1329 2.65787 23.9402 1.61461 24.3295 0.383927C23.3267 1.00586 22.2271 1.44307 21.0795 1.67608C20.3067 0.824866 19.2841 0.26065 18.1698 0.0707389C17.0556 -0.119173 15.9119 0.0758061 14.9156 0.625507C13.9194 1.17521 13.1261 2.04899 12.6586 3.11164C12.1912 4.1743 12.0755 5.3666 12.3295 6.50405C10.2909 6.40061 8.29626 5.85448 6.47541 4.9012C4.65455 3.94792 3.04834 2.60888 1.76136 0.971271C1.11241 2.13559 0.915712 3.51133 1.21109 4.81993C1.50647 6.12853 2.27185 7.27221 3.35227 8.0194C2.55524 7.98762 1.77665 7.76227 1.07955 7.36157V7.42031C1.07246 8.63709 1.469 9.81963 2.20307 10.7708C2.93714 11.722 3.9644 12.3845 5.11364 12.6477C4.37232 12.8538 3.59579 12.8859 2.84091 12.7416C3.17362 13.7794 3.80873 14.6852 4.65914 15.3351C5.50956 15.985 6.53363 16.347 7.59091 16.3714C5.7832 17.8756 3.53647 18.7036 1.21591 18.7208C0.809038 18.7086 0.403122 18.6733 0 18.6151C2.34881 20.162 5.07864 20.9776 7.86364 20.9645" fill="#B92C00"/>
</svg>
