<svg width="71" height="71" viewBox="0 0 71 71" fill="none" xmlns="http://www.w3.org/2000/svg">
<path d="M54.4974 3.06194C54.4984 2.5297 54.3413 2.00917 54.046 1.56633C53.7508 1.12349 53.3307 0.778279 52.839 0.574473C52.3474 0.370666 51.8063 0.317437 51.2843 0.421533C50.7623 0.52563 50.283 0.782364 49.9072 1.15919L39.1572 11.9092C38.9078 12.1592 38.7101 12.456 38.5754 12.7825C38.4408 13.1089 38.3718 13.4588 38.3724 13.8119V28.8243L34.3895 32.8018C33.5928 32.5904 32.7581 32.5647 31.9499 32.7267C31.1416 32.8886 30.3813 33.234 29.7275 33.7361C29.0738 34.2383 28.544 34.8838 28.179 35.6229C27.8141 36.362 27.6236 37.1751 27.6224 37.9994C27.6228 38.7644 27.7864 39.5204 28.1023 40.2171C28.4183 40.9137 28.8793 41.5349 29.4545 42.0391C30.0298 42.5433 30.706 42.9189 31.4381 43.1408C32.1701 43.3627 32.9411 43.4258 33.6995 43.3259C34.4578 43.226 35.1862 42.9654 35.8358 42.5615C36.4853 42.1575 37.0412 41.6196 37.4663 40.9836C37.8913 40.3476 38.1757 39.6283 38.3005 38.8736C38.4252 38.1189 38.3874 37.3462 38.1897 36.6073L42.1726 32.6244H57.1849C57.5381 32.6251 57.8879 32.5561 58.2144 32.4214C58.5409 32.2868 58.8376 32.0891 59.0877 31.8397L69.8377 21.0897C70.2145 20.7138 70.4712 20.2345 70.5753 19.7126C70.6794 19.1906 70.6262 18.6495 70.4224 18.1578C70.2186 17.6662 69.8734 17.2461 69.4305 16.9508C68.9877 16.6556 68.4672 16.4985 67.9349 16.4994H54.4974V3.06194ZM64.9464 33.5812C65.8713 40.274 64.6709 47.0882 61.5145 53.062C58.3582 59.0358 53.4054 63.8674 47.3553 66.8749C41.3051 69.8823 34.4632 70.9136 27.7954 69.8232C21.1276 68.7329 14.9706 65.5759 10.1936 60.7979C5.41659 56.02 2.26082 49.8624 1.17175 43.1944C0.0826902 36.5263 1.11535 29.6846 4.12395 23.6351C7.13256 17.5856 11.9652 12.6337 17.9396 9.47852C23.914 6.32335 30.7285 5.12423 37.4211 6.05044L35.3624 8.10906C34.6129 8.85766 34.0182 9.74663 33.6124 10.7252C33.2066 11.7037 32.9977 12.7526 32.9974 13.8119C28.2136 13.8119 23.5372 15.2305 19.5596 17.8883C15.582 20.546 12.4818 24.3236 10.6511 28.7433C8.8204 33.163 8.3414 38.0263 9.27468 42.7182C10.208 47.4101 12.5116 51.7199 15.8943 55.1026C19.277 58.4853 23.5868 60.7889 28.2787 61.7222C32.9706 62.6555 37.8339 62.1765 42.2536 60.3458C46.6733 58.5151 50.4508 55.4149 53.1086 51.4373C55.7664 47.4597 57.1849 42.7833 57.1849 37.9994C59.3225 37.9976 61.3719 37.1469 62.8824 35.6344L64.9464 33.5812ZM32.9974 19.1869C29.2767 19.1869 25.6395 20.2903 22.5458 22.3574C19.4521 24.4246 17.0408 27.3627 15.6169 30.8002C14.1931 34.2377 13.8205 38.0203 14.5464 41.6696C15.2723 45.3188 17.064 48.6709 19.695 51.3019C22.326 53.9329 25.678 55.7246 29.3273 56.4505C32.9766 57.1763 36.7591 56.8038 40.1967 55.3799C43.6342 53.9561 46.5723 51.5448 48.6395 48.4511C50.7066 45.3574 51.8099 41.7202 51.8099 37.9994H44.3978L43.7259 38.6713C43.5967 40.7362 42.8744 42.72 41.6456 44.3846C40.4168 46.0491 38.7338 47.3237 36.7985 48.0553C34.8632 48.787 32.7579 48.9446 30.7352 48.5093C28.7126 48.0741 26.8585 47.0643 25.3955 45.6013C23.9325 44.1384 22.9228 42.2843 22.4875 40.2616C22.0522 38.239 22.2099 36.1337 22.9415 34.1984C23.6732 32.2631 24.9478 30.5801 26.6123 29.3513C28.2768 28.1225 30.2606 27.4001 32.3256 27.2709L32.9974 26.5991V19.1869Z" fill="#B92C00"/>
</svg>
